<svg xmlns="http://www.w3.org/2000/svg" width="226.579" height="224.258" viewBox="0 0 226.579 224.258">
  <g id="그룹_299" data-name="그룹 299" transform="translate(-1608.201 -1151.02)">
    <g id="그룹_296" data-name="그룹 296" transform="translate(866.8 466.898)">
      <path id="패스_428" data-name="패스 428" d="M748.8,765.2c.6-15.7,3.6-29.3,9.1-40.5a62.005,62.005,0,0,1,31-30A3.65,3.65,0,0,0,786,688a68.819,68.819,0,0,0-34.7,33.6c-5.9,12.1-9.2,26.8-9.8,43.5a188.409,188.409,0,0,0,6.2,53.5,3.629,3.629,0,0,0,3.5,2.6,3.4,3.4,0,0,0,1-.1,3.664,3.664,0,0,0,2.5-4.5A183.626,183.626,0,0,1,748.8,765.2Z" fill="#ffa833"/>
      <path id="패스_431" data-name="패스 431" d="M781.5,844.6c3.6-4.6,6-11.4,7.1-20.3,1.5-11.4.8-26.4-1.9-44.3a3.691,3.691,0,0,0-7.3,1.1c2.6,17.1,4.5,40.3-.9,53.8-2.9,7.4-6.6,8.1-6.7,8.2h.2l.6,7.3C773.5,850.2,777.5,849.6,781.5,844.6Z" fill="#ffa833"/>
      <path id="패스_434" data-name="패스 434" d="M764.9,817.4c.1-.5,1.9-12-1.9-39.2a3.635,3.635,0,0,0-7.2,1c2.9,20.7,2.5,33.3,1.9,37a3.641,3.641,0,0,0,3,4.2h.6A3.479,3.479,0,0,0,764.9,817.4Z" fill="#ffa833"/>
      <path id="패스_435" data-name="패스 435" d="M759.3,770.2h0a3.671,3.671,0,0,0,3.7-3.6,112.616,112.616,0,0,1,2-19.3c2.4-13.3,6.8-22.8,12.5-27.5a3.624,3.624,0,1,0-4.6-5.6c-16.8,13.9-17.1,50.9-17.1,52.5A3.358,3.358,0,0,0,759.3,770.2Z" fill="#ffa833"/>
      <path id="패스_438" data-name="패스 438" d="M821.6,838.1a3.7,3.7,0,0,0-4.5,2.5,141.121,141.121,0,0,1-9.7,25.8,3.646,3.646,0,0,0,1.6,4.9,3.287,3.287,0,0,0,1.7.4,3.5,3.5,0,0,0,3.2-2,158.862,158.862,0,0,0,10.3-27.3A3.6,3.6,0,0,0,821.6,838.1Z" fill="#ffa833"/>
      <path id="패스_439" data-name="패스 439" d="M936.8,840.7a2.84,2.84,0,0,0-4-.9l-1.9,1.2-23-36.5h0A64.82,64.82,0,0,0,916,796h0c.3-.4.6-.7.9-1.1h0c.3-.4.6-.8.8-1.1h0a57.848,57.848,0,0,0,5.2-8.6h0l.6-1.2a.1.1,0,0,1,.1-.1,6.115,6.115,0,0,0,.5-1.2c0-.1,0-.1.1-.2.2-.4.3-.8.5-1.2a.1.1,0,0,1,.1-.1c.2-.4.3-.8.5-1.2v-.1c.9-2.2,1.6-4.4,2.3-6.6h0l.3-1.2a.367.367,0,0,1,.1-.3c.1-.4.2-.7.3-1.1,0-.1.1-.2.1-.3a3.6,3.6,0,0,0,.2-1.1c0-.1.1-.3.1-.4.1-.3.1-.7.2-1,0-.1.1-.3.1-.4.1-.3.1-.7.2-1a.6.6,0,0,1,.1-.4c.1-.4.1-.7.2-1.1v-.3c.2-1.3.3-2.7.5-4h0c0-.3.1-.7.1-1v-.5a2.77,2.77,0,0,1,.1-.9v-7.5a1.7,1.7,0,0,0-.1-.7,2.2,2.2,0,0,0-.1-.8c0-.3-.1-.5-.1-.8,0-.4-.1-.9-.1-1.3,0-.3-.1-.6-.1-.8s-.1-.5-.1-.7c0-.3-.1-.5-.1-.8,0-.2-.1-.5-.1-.7,0-.3-.1-.5-.1-.8,0-.2-.1-.5-.1-.7-.1-.3-.1-.5-.2-.8-.1-.2-.1-.5-.2-.7-.1-.3-.1-.5-.2-.8-.1-.2-.1-.5-.2-.7-.1-.3-.1-.5-.2-.8-.1-.2-.1-.5-.2-.7a3.092,3.092,0,0,1-.2-.8c-.1-.2-.1-.4-.2-.6l-.3-.9c-.1-.2-.1-.4-.2-.5-.1-.4-.3-.9-.4-1.3,0-.1-.1-.2-.1-.3-.2-.4-.3-.9-.5-1.3-.1-.2-.1-.3-.2-.5a3.552,3.552,0,0,0-.4-.9,1.422,1.422,0,0,1-.2-.6,3.552,3.552,0,0,0-.4-.9l-.3-.6a2.01,2.01,0,0,0-.4-.8l-.3-.6c-.1-.3-.3-.5-.4-.8l-.3-.6a5.932,5.932,0,0,0-.4-.8l-.3-.6c-.2-.3-.3-.6-.5-.9a2.185,2.185,0,0,0-.3-.5,4.051,4.051,0,0,1-.5-.9c-.1-.2-.2-.3-.3-.5a10,10,0,0,1-.8-1.4,27.493,27.493,0,0,0-1.9-2.8,63.7,63.7,0,0,0-8.6-9.9c-.7-.6-1.4-1.2-2-1.8a4.347,4.347,0,0,0-.7-.6c-.6-.5-1.2-1-1.9-1.5q-2.1-1.65-4.2-3a62.1,62.1,0,0,0-6-3.5c-.6-.3-1.1-.6-1.7-.9a64.059,64.059,0,0,0-16.9-5.4l-1.8-.3c-1.4-.2-2.7-.4-4.1-.5a1.7,1.7,0,0,1-.7-.1,64.84,64.84,0,0,0-23.1,2.4,57.031,57.031,0,0,0-19.3-7.5c-14.1-2.7-24.8.5-25.2.7a3.669,3.669,0,0,0,2.2,7,49.847,49.847,0,0,1,22-.4,49.062,49.062,0,0,1,11.2,3.7,66.756,66.756,0,0,0-7.9,4.2c-1.3.8-2.5,1.7-3.7,2.6a71.332,71.332,0,0,0-35.4-.5,3.675,3.675,0,0,0,1.9,7.1,68.566,68.566,0,0,1,26.5-.6,61.458,61.458,0,0,0-7.8,9.1v-.2a3.673,3.673,0,0,0-3.8-3.5c-11.1.5-19.8,4.3-26.1,11.2-13.8,15.3-12.4,42.3-11.3,64,.2,4,.4,7.7.5,11.1.6,25.1-8.6,29.6-8.7,29.7h.1l2.6,6.8c1.4-.5,14-6.2,13.3-36.6-.1-3.5-.3-7.3-.5-11.3-1.1-20.4-2.4-45.7,9.4-58.7,5-5.5,11.8-8.4,21-8.8a2.663,2.663,0,0,0,1.2-.3,64.23,64.23,0,0,0-3.7,6.8h0c-.4.1-.8.2-1.3.3-10,2.4-15.5,9.8-16.3,22.1-.6,9.9,1.8,22.1,4.1,33.9,1.9,9.9,3.9,20.1,3.9,28.2a67.859,67.859,0,0,1-7.5,30.8,54.2,54.2,0,0,1-7.6,11.4,3.68,3.68,0,0,0,5.4,5c.7-.7,17-18.5,17-47.2,0-8.8-2.1-19.3-4.1-29.6-4.7-23.7-7-40.3,2.9-46a73.151,73.151,0,0,0-2.1,9c-.1.7-.2,1.3-.3,2-.2,1.8-.4,3.7-.5,5.5v1c0,1.7,0,3.4.1,5.1.1,1.8.3,3.6.5,5.4a45.421,45.421,0,0,0,.9,5.1c.2.8.4,1.6.6,2.3.1.3.1.6.2.9a19.754,19.754,0,0,0,.8,2.6,64.46,64.46,0,0,0,5.3,12.1c.2.4.4.7.6,1.1a3.553,3.553,0,0,0-2.1,3.7c2.1,20.1,3.1,48.8-12.8,65.2a3.653,3.653,0,0,0,.1,5.2,3.471,3.471,0,0,0,2.5,1,3.631,3.631,0,0,0,2.6-1.1c16.6-17.1,17.1-44.7,15.3-65.8l.1.1c.1.2.3.3.4.5.2.2.4.5.6.7.1.2.3.3.4.5.2.2.4.5.6.7.1.2.3.3.4.5l.7.7.4.4a9.425,9.425,0,0,0,1,1l.2.2,1,1,.4.4a4.621,4.621,0,0,1,.7.7c.2.1.3.3.5.4l.4.4c0,5.2-.3,10.8-.8,16.9a3.686,3.686,0,0,0,3.3,4h.3a3.528,3.528,0,0,0,3.6-3.3c.2-2.3.5-6.6.7-12.1.2.1.3.2.5.3a10.536,10.536,0,0,1,1.1.7,4.354,4.354,0,0,0,.7.4c.2.1.5.3.7.4l.6.3c.2.1.5.3.7.4l.6.3c.2.1.3.2.5.3a404.553,404.553,0,0,1-8.9,49.1,3.608,3.608,0,0,0,2.6,4.4,2.769,2.769,0,0,0,.9.1,3.632,3.632,0,0,0,3.5-2.7,421.363,421.363,0,0,0,8.8-47.7h.1c1.3.5,2.5.9,3.8,1.3.1,0,.2.1.3.1.3.1.7.2,1,.3.1,0,.2.1.4.1.3.1.7.2,1,.3a.367.367,0,0,1,.3.1,294.669,294.669,0,0,1-7.1,40.4,3.594,3.594,0,0,0,2.7,4.4,2.769,2.769,0,0,0,.9.1,3.612,3.612,0,0,0,3.5-2.8,310.082,310.082,0,0,0,7.2-40.7,47.753,47.753,0,0,0,5.3.6h.1a5.7,5.7,0,0,1,1.3.1h.8a260.455,260.455,0,0,1-7.7,30.4,3.657,3.657,0,0,0,2.3,4.6,5.021,5.021,0,0,0,1.2.2,3.862,3.862,0,0,0,3.5-2.5,245.285,245.285,0,0,0,7.6-29.3c.2-1.2.5-2.5.7-3.7,2-.2,4.1-.4,6.1-.8h0c.2,0,.4-.1.6-.1a138.841,138.841,0,0,1-5.8,20.6,3.672,3.672,0,0,0,2.2,4.7,2.745,2.745,0,0,0,1.3.2,3.541,3.541,0,0,0,3.4-2.4,156.757,156.757,0,0,0,6.8-25.1c1.9-.6,3.7-1.3,5.6-2.1h0l23,36.5-1.9,1.2a2.84,2.84,0,0,0-.9,4L940.8,907a2.84,2.84,0,0,0,4,.9l21.8-13.8a2.84,2.84,0,0,0,.9-4Zm-29.7-66.1a18.64,18.64,0,0,1-1,2,10.916,10.916,0,0,1-.6,1.1c-.1.1-.1.2-.2.3-.1.2-.3.5-.4.7-.4.7-.8,1.3-1.2,1.9a4.354,4.354,0,0,0-.4.7c-.1.2-.2.3-.3.5a11.309,11.309,0,0,1-1,1.3v.1h0a45.584,45.584,0,0,1-8.4,8.6c-.2.1-.4.3-.6.4-.5.4-1.1.8-1.7,1.2a22.622,22.622,0,0,1-2,1.3c-.9.5-1.7,1-2.6,1.5a50.187,50.187,0,0,1-7.5,3.3,54.825,54.825,0,0,1-6.7,1.7,47.428,47.428,0,0,1-7.4.7,45.941,45.941,0,0,1-9.1-.7c-1-.2-2-.4-3.1-.6-.4-.1-.7-.2-1.1-.3-.5-.1-.9-.3-1.4-.4-.2,0-.3-.1-.5-.1-.4-.1-.9-.3-1.3-.4h-.1c-.3-.1-.6-.2-1-.3h-.1c-.2-.1-.4-.1-.6-.2-.5-.2-.9-.4-1.4-.6-.4-.2-.8-.3-1.2-.5-.2-.1-.5-.2-.7-.3-.1-.1-.2-.1-.3-.2a.758.758,0,0,0-.4-.2l-.6-.3h0c-.9-.5-1.7-.9-2.6-1.5-.2-.1-.4-.3-.6-.4a8.344,8.344,0,0,1-1.2-.8,13.308,13.308,0,0,1-1.9-1.4,1.38,1.38,0,0,0-.4-.3c-.2-.1-.3-.3-.5-.4h0a1.38,1.38,0,0,0-.4-.3,53.944,53.944,0,0,1-7.5-7.6h0c-.9-1.2-1.8-2.4-2.6-3.7a46.943,46.943,0,0,1-4.9-10.4c0-.1-.1-.2-.1-.3s-.1-.2-.1-.3c-.2-.7-.4-1.4-.6-2-.1-.2-.1-.5-.2-.7a.367.367,0,0,0-.1-.3.367.367,0,0,0-.1-.3c-.1-.4-.2-.9-.3-1.3-.2-1.2-.4-2.4-.6-3.5,0-.4-.1-.7-.1-1.1-.1-1.1-.2-2.2-.2-3.3v-2.6a10.871,10.871,0,0,1,.1-1.8,8.749,8.749,0,0,1,.2-1.6c0-.4.1-.8.1-1.2,0-.3.1-.5.1-.8,0-.2.1-.5.1-.7a19.961,19.961,0,0,1,.5-2.6l.3-1.2c0-.1.1-.3.1-.4v-.2c.1-.4.2-.7.3-1.1.2-.6.4-1.2.6-1.9,0-.1.1-.3.1-.4l.3-.9a13.358,13.358,0,0,1,.7-1.8l.3-.6c.1-.3.3-.6.4-.9a1.691,1.691,0,0,0,.2-.5c0-.1.1-.2.1-.3.1-.1.1-.3.2-.4.3-.6.6-1.1.9-1.7a2.185,2.185,0,0,1,.3-.5c.2-.3.3-.6.5-.9a23.92,23.92,0,0,1,1.3-2.1h0c.1-.2.2-.3.3-.5,0-.1.1-.1.1-.2a7.63,7.63,0,0,1,.8-1.1l2.1-2.7c.1-.1.1-.2.2-.2a45.889,45.889,0,0,1,5.4-5.4h0c.3-.3.6-.5.9-.8.4-.3.9-.7,1.3-1,.8-.6,1.6-1.1,2.4-1.7h0l.9-.6a41.166,41.166,0,0,1,6.2-3.3h0a51.524,51.524,0,0,1,9.9-3.1h0a43.812,43.812,0,0,1,8.8-.9h0a46.621,46.621,0,0,1,46.3,53.8,35.013,35.013,0,0,1-1.5,6.4c0,.1-.1.2-.1.3h0a.349.349,0,0,1-.1.2c-.3.8-.6,1.7-.9,2.5-.1.2-.1.4-.2.5l-.6,1.5C907.3,774.2,907.2,774.4,907.1,774.6Z" fill="#ffa833"/>
    </g>
    <text id="_" data-name="?" transform="translate(1754 1260)" fill="#ffa833" font-size="98" font-family="AppleSDGothicNeo-Bold, Apple SD Gothic Neo" font-weight="700"><tspan x="-42.63" y="0">?</tspan></text>
  </g>
</svg>
