<svg xmlns="http://www.w3.org/2000/svg" width="225.747" height="243.463" viewBox="0 0 225.747 243.463">
  <g id="그룹_291" data-name="그룹 291" transform="translate(-45.726 -944.453)">
    <g id="그룹_288" data-name="그룹 288" transform="translate(-60.2 270.898)">
      <path id="패스_421" data-name="패스 421" d="M246.5,783.7h11.9V841a15.983,15.983,0,0,1-16,16H195a16.047,16.047,0,0,1-16-16V783.7h67.5Z" fill="#4cf8a2"/>
      <path id="패스_422" data-name="패스 422" d="M218.6,796.7a11.544,11.544,0,0,0-5.9,21.5v14.1a5.977,5.977,0,0,0,5.9,5.9,6.348,6.348,0,0,0,4.2-1.7,5.728,5.728,0,0,0,1.7-4.2V818.2a11.544,11.544,0,0,0-5.9-21.5Z" fill="#fff"/>
      <path id="빼기_2" data-name="빼기 2" d="M-12510.8-1208.9h-11v-26a22.866,22.866,0,0,1,1.808-8.954,22.914,22.914,0,0,1,4.929-7.311,22.932,22.932,0,0,1,7.312-4.929,22.852,22.852,0,0,1,8.952-1.807h14a22.852,22.852,0,0,1,8.952,1.807,22.932,22.932,0,0,1,7.312,4.929,22.914,22.914,0,0,1,4.929,7.311,22.866,22.866,0,0,1,1.808,8.954v26h-11v-27a10.93,10.93,0,0,0-3.222-7.777,10.927,10.927,0,0,0-7.777-3.222h-16a10.926,10.926,0,0,0-7.777,3.222,10.929,10.929,0,0,0-3.222,7.777v27Z" transform="translate(12710 1993)" fill="#4cf8a2"/>
    </g>
    <g id="그룹_290" data-name="그룹 290" transform="translate(-66.2 270.898)">
      <path id="패스_421-2" data-name="패스 421" d="M230.6,685.8c-2-1.4-4-2.7-5.8-3.9-1.9,1.2-3.8,2.5-5.8,3.9-20.7,14-50.1,35.5-99.9,37.8,0,0-8,148.6,99.9,184.3,1.9.6,3.9,1.2,5.8,1.8,2-.6,3.9-1.2,5.8-1.8,107.9-35.7,99.9-184.3,99.9-184.3C280.7,721.3,251.3,699.9,230.6,685.8Z" fill="none" stroke="#4cf8a2" stroke-width="14"/>
    </g>
  </g>
</svg>
