<svg xmlns="http://www.w3.org/2000/svg" width="216.4" height="190.4" viewBox="0 0 216.4 190.4">
  <g id="그룹_298" data-name="그룹 298" transform="translate(-431.5 -70.7)">
    <path id="패스_405" data-name="패스 405" d="M541,261.1H647.9s-15.8-35.1-20.9-44c-4.9-8.5-56.4-20.6-61.3-21.7a69.165,69.165,0,0,0,7.1-8.6c8-11.7,12.9-26.5,12.9-38.7V129.9c3.7-6.4,3.7-12.8-.2-19.3-1.6,0-3.3-.1-4.9-.1h2.3c-.7-22.1-19.6-39.8-42.9-39.8s-42.2,17.7-42.9,39.8h2.8c-1.6,0-3.3.1-4.9.1-3.9,6.5-3.9,13.1,0,19.6v17.9c0,12.2,5,27.1,12.9,38.7a63.842,63.842,0,0,0,6.8,8.4l-.6.1s-56.5,12.9-61.7,21.8-20.9,44-20.9,44H541Zm-28.4-77.6a72.792,72.792,0,0,1-10.8-25c4.9,4.3,20,15.3,38.8,5.9,17.9,8.9,32.4-.6,38-5.3A72.884,72.884,0,0,1,568,183.4a52.171,52.171,0,0,1-9.2,10.4,43.94,43.94,0,0,1-3.6,2.8,24.316,24.316,0,0,1-29.8,0,35.727,35.727,0,0,1-3.8-3A49.737,49.737,0,0,1,512.6,183.5Zm-2.6-56V112.9h3.3v14.6Zm11.3,0V112.9h3.3v14.6Zm11.2,0V112.9h3.3v14.6Zm11.3,0V112.9h3.3v14.6Zm11.3,0V112.9h3.3v14.6Zm11.3,0V112.9h3.3v14.6Zm-4.2,12.4c-9.3,2.7-20.4,3-21.5,3a99.914,99.914,0,0,1-21.5-3c-8.5-2.4-15.4-1.8-18.4,2.4v-6.8H580v6.1C576.7,138,570.1,137.6,562.2,139.9Zm8.6,11s-2.9,5.9-8.2,7.4-10.9-1.9-10.9-1.9,2.9-5.9,8.2-7.4C565.1,147.4,570.8,150.9,570.8,150.9Zm-41.2,5.5s-5.6,3.4-10.9,1.9-8.2-7.4-8.2-7.4,5.6-3.4,10.9-1.9S529.6,156.4,529.6,156.4ZM581,112.9v14.6h-3.3V112.9Zm-82.3,0H502v14.6h-3.3Z" fill="#ffa833"/>
  </g>
</svg>
